<?xml version="1.0" encoding="UTF-8" standalone="no"?>
<!-- Created with Inkscape (http://www.inkscape.org/) -->

<svg
   xmlns:dc="http://purl.org/dc/elements/1.1/"
   xmlns:cc="http://creativecommons.org/ns#"
   xmlns:rdf="http://www.w3.org/1999/02/22-rdf-syntax-ns#"
   xmlns:svg="http://www.w3.org/2000/svg"
   xmlns="http://www.w3.org/2000/svg"
   xmlns:sodipodi="http://sodipodi.sourceforge.net/DTD/sodipodi-0.dtd"
   xmlns:inkscape="http://www.inkscape.org/namespaces/inkscape"
   width="432.09375"
   height="432.09375"
   id="svg3820"
   version="1.1"
   inkscape:version="0.48.4 r9939"
   sodipodi:docname="frame.svg"
   inkscape:export-filename="/home/g/dev/aziwatch/img/frame.png"
   inkscape:export-xdpi="120.80711"
   inkscape:export-ydpi="120.80711">
  <defs
     id="defs3822">
    <inkscape:path-effect
       is_visible="true"
       id="path-effect3878"
       effect="spiro" />
    <inkscape:path-effect
       effect="spiro"
       id="path-effect3874"
       is_visible="true" />
    <inkscape:path-effect
       is_visible="true"
       id="path-effect3870"
       effect="spiro" />
    <inkscape:path-effect
       effect="spiro"
       id="path-effect3866"
       is_visible="true" />
    <inkscape:path-effect
       is_visible="true"
       id="path-effect3862"
       effect="spiro" />
    <inkscape:path-effect
       effect="spiro"
       id="path-effect3858"
       is_visible="true" />
    <inkscape:path-effect
       is_visible="true"
       id="path-effect3854"
       effect="spiro" />
    <inkscape:path-effect
       effect="spiro"
       id="path-effect3850"
       is_visible="true" />
    <inkscape:path-effect
       is_visible="true"
       id="path-effect3846"
       effect="spiro" />
    <inkscape:path-effect
       effect="spiro"
       id="path-effect3842"
       is_visible="true" />
    <inkscape:path-effect
       is_visible="true"
       id="path-effect3838"
       effect="spiro" />
    <inkscape:path-effect
       effect="spiro"
       id="path-effect3834"
       is_visible="true" />
  </defs>
  <sodipodi:namedview
     id="base"
     pagecolor="#ffffff"
     bordercolor="#666666"
     borderopacity="1.0"
     inkscape:pageopacity="0.0"
     inkscape:pageshadow="2"
     inkscape:zoom="1.2905999"
     inkscape:cx="111.74603"
     inkscape:cy="224.39489"
     inkscape:document-units="px"
     inkscape:current-layer="layer1"
     showgrid="false"
     fit-margin-top="0"
     fit-margin-left="0"
     fit-margin-right="0"
     fit-margin-bottom="0"
     inkscape:window-width="1920"
     inkscape:window-height="1031"
     inkscape:window-x="0"
     inkscape:window-y="25"
     inkscape:window-maximized="1" />
  <metadata
     id="metadata3825">
    <rdf:RDF>
      <cc:Work
         rdf:about="">
        <dc:format>image/svg+xml</dc:format>
        <dc:type
           rdf:resource="http://purl.org/dc/dcmitype/StillImage" />
        <dc:title></dc:title>
      </cc:Work>
    </rdf:RDF>
  </metadata>
  <g
     inkscape:label="Calque 1"
     inkscape:groupmode="layer"
     id="layer1"
     transform="translate(-142.2824,-282.94328)">
    <path
       sodipodi:type="arc"
       style="color:#000000;fill:none;stroke:#000000;stroke-width:40;stroke-miterlimit:4;stroke-opacity:1;stroke-dasharray:none;marker:none;visibility:visible;display:inline;overflow:visible;enable-background:accumulate"
       id="path4524"
       sodipodi:cx="-772.5249"
       sodipodi:cy="360.92502"
       sodipodi:rx="196.04393"
       sodipodi:ry="196.04393"
       d="m -576.48097,360.92502 c 0,108.27207 -87.77186,196.04393 -196.04393,196.04393 -108.27208,0 -196.04393,-87.77186 -196.04393,-196.04393 0,-108.27207 87.77185,-196.04393 196.04393,-196.04393 108.27207,0 196.04393,87.77186 196.04393,196.04393 z"
       transform="translate(1130.8449,138.06828)" />
    <path
       style="font-size:medium;font-style:normal;font-variant:normal;font-weight:normal;font-stretch:normal;text-indent:0;text-align:start;text-decoration:none;line-height:normal;letter-spacing:normal;word-spacing:normal;text-transform:none;direction:ltr;block-progression:tb;writing-mode:lr-tb;text-anchor:start;baseline-shift:baseline;color:#000000;fill:#000000;fill-opacity:1;stroke:none;stroke-width:10;marker:none;visibility:visible;display:inline;overflow:visible;enable-background:accumulate;font-family:Sans;-inkscape-font-specification:Sans"
       d="m 351.06369,319.69328 0,21.65625 c 2.04439,-0.0785 4.09264,-0.15625 6.15625,-0.15625 1.28836,0 2.56278,0.0318 3.84375,0.0625 l 0,-21.5625 -10,0 z m -40.8125,5.9375 -0.9375,0.28125 5.625,21.03125 c 0.3218,-0.0893 0.64613,-0.16269 0.96875,-0.25 l -5.65625,-21.0625 z m 91.59375,0 -5.46875,20.46875 c 0.32384,0.0827 0.64572,0.16531 0.96875,0.25 l 5.46875,-20.4375 -0.96875,-0.28125 z m -134.75,17.75 -0.875,0.5 11,19.0625 c 0.28927,-0.1705 0.58455,-0.3313 0.875,-0.5 l -11,-19.0625 z m 177.9375,0 -10.4375,18.0625 c 0.28634,0.16143 0.55852,0.33683 0.84375,0.5 l 10.4375,-18.0625 -0.84375,-0.5 z m -215.0625,28.3125 -0.6875,0.71875 15.6875,15.6875 c 0.22685,-0.22963 0.45926,-0.45926 0.6875,-0.6875 l -15.6875,-15.71875 z m 252.15625,0 -14.53125,14.53125 c 0.24254,0.23738 0.47774,0.47982 0.71875,0.71875 l 14.53125,-14.53125 -0.71875,-0.71875 z m -280.65625,36.9375 -0.5,0.875 19.28125,11.125 c 0.16694,-0.29121 0.33126,-0.58496 0.5,-0.875 l -19.28125,-11.125 z m 309.1875,0 -17.53125,10.125 c 0.17022,0.28773 0.33155,0.5861 0.5,0.875 l 17.53125,-10.125 -0.5,-0.875 z m -327.1875,43.09375 -0.25,0.96875 21.46875,5.75 c 0.0859,-0.32405 0.19331,-0.64552 0.28125,-0.96875 l -21.5,-5.75 z m 345.15625,0 -19.28125,5.15625 c 0.0883,0.31949 0.16371,0.64845 0.25,0.96875 l 19.3125,-5.15625 -0.28125,-0.96875 z m -351.375,41.75 0,10 22.25,0 c -0.0415,-1.48904 -0.0625,-2.96966 -0.0625,-4.46875 0,-1.8473 0.0308,-3.69929 0.0937,-5.53125 l -22.28125,0 z m 337.65625,0 c 0.063,1.83196 0.0937,3.68395 0.0937,5.53125 0,1.49909 -0.021,2.97971 -0.0625,4.46875 l 19.90625,0 0,-10 -19.9375,0 z m -310.46875,45.09375 -21.21875,5.6875 0.25,0.96875 21.21875,-5.6875 c -0.0859,-0.324 -0.16614,-0.64394 -0.25,-0.96875 z m 305.4375,0.59375 c -0.0856,0.32628 -0.19361,0.6433 -0.28125,0.96875 l 19.03125,5.09375 0.28125,-0.96875 -19.03125,-5.09375 z m -290.0625,37.40625 -18.84375,10.875 0.5,0.875 18.8125,-10.875 c -0.16376,-0.28526 -0.30672,-0.58862 -0.46875,-0.875 z m 274.28125,1.03125 c -0.1651,0.28683 -0.3644,0.55805 -0.53125,0.84375 l 17.09375,9.875 0.5,-0.875 -17.0625,-9.84375 z m -249.625,31.75 -15.1875,15.1875 0.6875,0.71875 15.1875,-15.1875 c -0.23245,-0.23452 -0.45651,-0.48278 -0.6875,-0.71875 z m 224.375,1.1875 c -0.23861,0.23874 -0.47862,0.48153 -0.71875,0.71875 l 14,14 0.71875,-0.71875 -14,-14 z m -192.0625,24.21875 -10.5625,18.3125 0.875,0.5 10.5625,-18.28125 c -0.29444,-0.17228 -0.58178,-0.35713 -0.875,-0.53125 z m 159.125,1.03125 c -0.28348,0.16344 -0.55916,0.33827 -0.84375,0.5 l 9.96875,17.28125 0.84375,-0.5 -9.96875,-17.28125 z m -121.21875,15.1875 -5.375,20.0625 0.9375,0.28125 5.375,-20.09375 c -0.31267,-0.0852 -0.6256,-0.16289 -0.9375,-0.25 z m 82.90625,0.59375 c -0.3234,0.0854 -0.64455,0.16665 -0.96875,0.25 l 5.21875,19.5 0.96875,-0.28125 -5.21875,-19.46875 z m -46.53125,5.0625 0,20.65625 10,0 0,-20.5625 c -1.28097,0.0307 -2.55539,0.0625 -3.84375,0.0625 -2.06361,0 -4.11186,-0.0777 -6.15625,-0.15625 z"
       id="path3832"
       inkscape:connector-curvature="0" />
    <g
       id="g4504"
       transform="translate(1130.8449,138.06828)">
      <text
         sodipodi:linespacing="125%"
         id="text4468"
         y="171.90297"
         x="-780.74323"
         style="font-size:20px;font-style:normal;font-weight:normal;line-height:125%;letter-spacing:0px;word-spacing:0px;fill:#f0f0f0;fill-opacity:1;stroke:none;font-family:Sans"
         xml:space="preserve"><tspan
           style="font-size:20px;font-style:normal;font-variant:normal;font-weight:normal;font-stretch:normal;fill:#f0f0f0;fill-opacity:1;font-family:Ubuntu;-inkscape-font-specification:Ubuntu"
           y="171.90297"
           x="-780.74323"
           id="tspan4470"
           sodipodi:role="line">0</tspan></text>
      <text
         sodipodi:linespacing="125%"
         id="text4472"
         y="171.90297"
         x="-729.24158"
         style="font-size:10px;font-style:normal;font-weight:normal;line-height:125%;letter-spacing:0px;word-spacing:0px;fill:#f0f0f0;fill-opacity:1;stroke:none;font-family:Sans"
         xml:space="preserve"><tspan
           y="171.90297"
           x="-729.24158"
           id="tspan4474"
           sodipodi:role="line">1</tspan></text>
      <text
         sodipodi:linespacing="125%"
         id="text4476"
         y="194.91435"
         x="-683.76672"
         style="font-size:10px;font-style:normal;font-weight:normal;line-height:125%;letter-spacing:0px;word-spacing:0px;fill:#f0f0f0;fill-opacity:1;stroke:none;font-family:Sans"
         xml:space="preserve"><tspan
           y="194.91435"
           x="-683.76672"
           id="tspan4478"
           sodipodi:role="line">2</tspan></text>
      <text
         sodipodi:linespacing="125%"
         id="text4480"
         y="225.04829"
         x="-640.4834"
         style="font-size:10px;font-style:normal;font-weight:normal;line-height:125%;letter-spacing:0px;word-spacing:0px;fill:#f0f0f0;fill-opacity:1;stroke:none;font-family:Sans"
         xml:space="preserve"><tspan
           y="225.04829"
           x="-640.4834"
           id="tspan4482"
           sodipodi:role="line">3</tspan></text>
      <text
         sodipodi:linespacing="125%"
         id="text4484"
         y="266.68793"
         x="-609.80157"
         style="font-size:10px;font-style:normal;font-weight:normal;line-height:125%;letter-spacing:0px;word-spacing:0px;fill:#f0f0f0;fill-opacity:1;stroke:none;font-family:Sans"
         xml:space="preserve"><tspan
           y="266.68793"
           x="-609.80157"
           id="tspan4486"
           sodipodi:role="line">4</tspan></text>
      <text
         sodipodi:linespacing="125%"
         id="text4488"
         y="310.51913"
         x="-589.5296"
         style="font-size:10px;font-style:normal;font-weight:normal;line-height:125%;letter-spacing:0px;word-spacing:0px;fill:#f0f0f0;fill-opacity:1;stroke:none;font-family:Sans"
         xml:space="preserve"><tspan
           y="310.51913"
           x="-589.5296"
           id="tspan4490"
           sodipodi:role="line">5</tspan></text>
      <text
         sodipodi:linespacing="125%"
         id="text4492"
         y="365.30814"
         x="-585.6944"
         style="font-size:20px;font-style:normal;font-weight:normal;line-height:125%;letter-spacing:0px;word-spacing:0px;fill:#f0f0f0;fill-opacity:1;stroke:none;font-family:Sans"
         xml:space="preserve"><tspan
           y="365.30814"
           x="-585.6944"
           id="tspan4494"
           sodipodi:role="line">6</tspan></text>
      <text
         sodipodi:linespacing="125%"
         id="text4496"
         y="559.80908"
         x="-784.57849"
         style="font-size:20px;font-style:normal;font-weight:normal;line-height:125%;letter-spacing:0px;word-spacing:0px;fill:#f0f0f0;fill-opacity:1;stroke:none;font-family:Sans"
         xml:space="preserve"><tspan
           y="559.80908"
           x="-784.57849"
           id="tspan4498"
           sodipodi:role="line">12</tspan></text>
      <text
         sodipodi:linespacing="125%"
         id="text4500"
         y="365.30814"
         x="-983.46252"
         style="font-size:20px;font-style:normal;font-weight:normal;line-height:125%;letter-spacing:0px;word-spacing:0px;fill:#f0f0f0;fill-opacity:1;stroke:none;font-family:Sans"
         xml:space="preserve"><tspan
           y="365.30814"
           x="-983.46252"
           id="tspan4502"
           sodipodi:role="line">18</tspan></text>
    </g>
  </g>
</svg>
